<?xml version="1.0" encoding="UTF-8"?>
<!DOCTYPE svg PUBLIC "-//W3C//DTD SVG 1.1//EN" "http://www.w3.org/Graphics/SVG/1.1/DTD/svg11.dtd">
<!-- Creator: CorelDRAW -->
<svg xmlns="http://www.w3.org/2000/svg" xml:space="preserve" width="6.481mm" height="6.481mm" version="1.1" style="shape-rendering:geometricPrecision; text-rendering:geometricPrecision; image-rendering:optimizeQuality; fill-rule:evenodd; clip-rule:evenodd"
viewBox="0 0 41.73 41.73"
 xmlns:xlink="http://www.w3.org/1999/xlink"
 xmlns:xodm="http://www.corel.com/coreldraw/odm/2003">
 <defs>
  <style type="text/css">
   <![CDATA[
    .fil0 {fill:#ED3237}
   ]]>
  </style>
 </defs>
 <g id="Camada_x0020_1">
  <metadata id="CorelCorpID_0Corel-Layer"/>
  <path class="fil0" d="M1.59 1.59l0 -0c2.12,-2.12 5.59,-2.12 7.71,0l11.57 11.57 11.56 -11.57c2.12,-2.12 5.59,-2.12 7.71,0 2.12,2.12 2.12,5.59 0,7.71l-11.56 11.57 11.56 11.56c2.12,2.12 2.12,5.59 0,7.71l-0 0c-2.12,2.12 -5.59,2.12 -7.71,0l-11.56 -11.56 -11.57 11.56c-2.12,2.12 -5.59,2.12 -7.71,-0 -2.12,-2.12 -2.12,-5.59 -0,-7.71l11.57 -11.56 -11.57 -11.57c-2.12,-2.12 -2.12,-5.59 0,-7.71z"/>
 </g>
</svg>
