<?xml version="1.0" encoding="UTF-8"?>
<!DOCTYPE svg PUBLIC "-//W3C//DTD SVG 1.1//EN" "http://www.w3.org/Graphics/SVG/1.1/DTD/svg11.dtd">
<!-- Creator: CorelDRAW -->
<svg xmlns="http://www.w3.org/2000/svg" xml:space="preserve" width="8.4667mm" height="8.4667mm" version="1.1" style="shape-rendering:geometricPrecision; text-rendering:geometricPrecision; image-rendering:optimizeQuality; fill-rule:evenodd; clip-rule:evenodd"
viewBox="0 0 50.82 50.82"
 xmlns:xlink="http://www.w3.org/1999/xlink"
 xmlns:xodm="http://www.corel.com/coreldraw/odm/2003">
 <defs>
  <style type="text/css">
   <![CDATA[
    .fil0 {fill:white}
   ]]>
  </style>
 </defs>
 <g id="Camada_x0020_1">
  <metadata id="CorelCorpID_0Corel-Layer"/>
  <path class="fil0" d="M25.41 17.77c4.24,0 7.68,3.42 7.68,7.64 0,4.22 -3.44,7.64 -7.68,7.64 -4.24,0 -7.68,-3.42 -7.68,-7.64 0,-4.22 3.44,-7.64 7.68,-7.64zm0 -17.77c13.24,0 24.13,10.03 25.41,22.88l-12.74 0c-1.18,-5.89 -6.4,-10.33 -12.67,-10.33 -6.27,0 -11.49,4.44 -12.67,10.33l-12.74 0c1.28,-12.85 12.16,-22.88 25.41,-22.88zm25.41 27.93c-1.27,12.85 -12.16,22.88 -25.41,22.88 -13.25,0 -24.13,-10.04 -25.41,-22.88l12.74 0c1.18,5.89 6.4,10.33 12.67,10.33 6.27,0 11.49,-4.44 12.67,-10.33l12.74 0zm-25.41 -6.39c2.14,0 3.88,1.73 3.88,3.86 0,2.13 -1.74,3.86 -3.88,3.86 -2.14,0 -3.88,-1.73 -3.88,-3.86 0,-2.13 1.74,-3.86 3.88,-3.86z"/>
 </g>
</svg>
