<?xml version="1.0" encoding="UTF-8"?>
<!DOCTYPE svg PUBLIC "-//W3C//DTD SVG 1.1//EN" "http://www.w3.org/Graphics/SVG/1.1/DTD/svg11.dtd">
<!-- Creator: CorelDRAW -->
<svg xmlns="http://www.w3.org/2000/svg" xml:space="preserve" width="8.4667mm" height="8.4667mm" version="1.1" style="shape-rendering:geometricPrecision; text-rendering:geometricPrecision; image-rendering:optimizeQuality; fill-rule:evenodd; clip-rule:evenodd"
viewBox="0 0 88.94 88.94"
 xmlns:xlink="http://www.w3.org/1999/xlink"
 xmlns:xodm="http://www.corel.com/coreldraw/odm/2003">
 <defs>
  <style type="text/css">
   <![CDATA[
    .fil0 {fill:#F6F6F6}
   ]]>
  </style>
 </defs>
 <g id="Camada_x0020_1">
  <metadata id="CorelCorpID_0Corel-Layer"/>
  <path class="fil0" d="M44.47 31.1c7.42,0 13.44,5.99 13.44,13.37 0,7.38 -6.02,13.37 -13.44,13.37 -7.42,0 -13.44,-5.99 -13.44,-13.37 0,-7.38 6.01,-13.37 13.44,-13.37zm0 -31.1c23.18,0 42.24,17.56 44.47,40.04l-22.29 0c-2.07,-10.31 -11.21,-18.08 -22.18,-18.08 -10.97,0 -20.11,7.77 -22.18,18.08l-22.29 0c2.23,-22.48 21.29,-40.04 44.47,-40.04zm44.47 48.89c-2.23,22.49 -21.29,40.05 -44.47,40.05 -23.18,0 -42.24,-17.57 -44.47,-40.05l22.29 0c2.06,10.31 11.21,18.09 22.18,18.09 10.97,0 20.11,-7.77 22.18,-18.09l22.29 0zm-44.47 -11.18c3.75,0 6.8,3.03 6.8,6.76 0,3.73 -3.04,6.76 -6.8,6.76 -3.75,0 -6.8,-3.03 -6.8,-6.76 0,-3.73 3.04,-6.76 6.8,-6.76z"/>
 </g>
</svg>
